<?xml version="1.0" standalone="no"?>
<!DOCTYPE svg PUBLIC "-//W3C//DTD SVG 20010904//EN"
 "http://www.w3.org/TR/2001/REC-SVG-20010904/DTD/svg10.dtd">
<svg version="1.0" xmlns="http://www.w3.org/2000/svg"
 width="358.000000pt" height="358.000000pt" viewBox="0 0 358.000000 358.000000"
 preserveAspectRatio="xMidYMid meet">
<metadata>
Created by potrace 1.11, written by Peter Selinger 2001-2013
</metadata>
<g transform="translate(0.000000,358.000000) scale(0.100000,-0.100000)"
fill="#000000" stroke="none">
<path d="M1400 3563 c0 -2 20 -30 44 -62 50 -64 80 -145 90 -237 6 -59 6 -61
-16 -60 -18 1 -28 14 -50 65 -24 57 -66 117 -75 108 -1 -2 6 -28 17 -59 20
-57 62 -282 57 -308 -4 -26 -16 -37 -56 -58 l-39 -21 -6 22 c-3 12 -6 58 -7
102 -1 68 -2 75 -11 50 -5 -16 -13 -73 -17 -125 l-7 -95 -17 55 c-9 30 -19 82
-21 115 -7 117 -44 205 -103 243 -39 26 -41 19 -10 -28 27 -41 43 -82 51 -130
9 -58 19 -205 13 -200 -3 3 -13 34 -22 70 -20 78 -54 160 -66 160 -11 0 -11
-3 2 -37 13 -36 27 -105 35 -185 3 -35 8 -67 11 -73 2 -5 -5 2 -17 17 -11 14
-29 37 -40 50 l-20 23 9 -27 c6 -14 12 -46 15 -70 3 -23 8 -63 11 -87 4 -30 1
-51 -9 -66 -21 -32 -34 -114 -24 -153 6 -23 5 -38 -3 -48 -24 -29 -32 5 -33
136 -1 71 -4 130 -7 130 -3 0 -14 -28 -25 -62 -14 -47 -19 -92 -19 -175 0 -61
-3 -109 -6 -107 -15 9 -58 153 -64 209 -12 117 -15 135 -35 185 -30 77 -69
129 -114 153 -82 44 -95 43 -52 -4 42 -45 84 -132 95 -194 24 -139 33 -255 21
-255 -4 0 -22 44 -40 98 -37 112 -73 183 -100 200 -11 7 -20 8 -20 3 0 -6 4
-12 9 -15 14 -9 49 -151 70 -290 11 -71 20 -131 19 -135 -3 -16 17 -90 34
-124 l19 -39 -58 7 c-32 4 -61 9 -65 11 -3 2 -16 35 -28 73 -21 70 -60 125
-60 85 0 -10 7 -44 15 -74 8 -30 12 -56 10 -58 -8 -8 -51 7 -85 30 -49 33 -78
81 -91 152 -11 55 -13 58 -20 33 -4 -16 -6 -62 -4 -104 3 -68 7 -78 41 -119
20 -25 58 -57 85 -72 85 -47 56 -56 -48 -14 l-52 21 14 -32 c15 -37 59 -84 86
-92 11 -4 20 -9 20 -13 1 -4 3 -18 5 -32 1 -14 9 -55 17 -91 13 -60 15 -195 3
-206 -29 -29 -107 216 -101 317 l3 55 -13 -37 c-9 -23 -15 -96 -17 -197 -1
-89 -4 -161 -6 -161 -12 0 -28 69 -36 160 -11 115 -45 195 -98 228 -18 12 -34
19 -36 18 -2 -2 11 -25 27 -52 17 -26 34 -64 37 -83 4 -20 8 -45 10 -55 2 -10
6 -58 9 -105 l5 -86 -15 45 c-8 25 -17 57 -20 72 -7 36 -41 114 -53 122 -6 3
-4 -16 3 -46 16 -61 20 -89 36 -211 6 -49 9 -91 6 -93 -2 -2 -16 5 -31 17 -35
27 -65 87 -73 146 -6 42 -7 44 -15 22 -5 -13 -8 -55 -7 -94 2 -58 7 -77 30
-110 35 -52 58 -70 125 -102 30 -14 57 -29 60 -34 7 -13 -51 1 -123 27 -71 27
-74 20 -23 -46 18 -24 29 -51 32 -86 10 -102 78 -196 187 -256 36 -20 62 -43
73 -64 21 -40 14 -41 -53 -12 -40 17 -56 31 -78 70 -36 62 -50 41 -22 -32 48
-126 115 -202 247 -280 126 -74 147 -82 187 -66 40 17 175 11 194 -8 3 -2 6
-35 9 -73 7 -121 0 -112 142 -177 150 -70 223 -94 274 -91 21 1 42 -3 47 -9 9
-12 12 -21 66 -198 40 -130 40 -130 150 -146 62 -9 344 -8 403 1 77 12 107 42
99 96 -6 37 0 45 49 59 23 7 47 19 54 27 17 20 15 85 -3 155 -12 46 -14 83 -8
121 1 3 12 11 26 17 14 7 25 20 25 31 0 20 22 29 98 38 36 4 48 1 68 -18 21
-20 34 -22 112 -22 122 1 130 3 166 44 36 43 56 107 56 182 0 46 3 53 20 54
37 3 125 49 160 85 56 56 88 128 96 217 l5 56 -31 -48 c-32 -51 -75 -82 -125
-93 -16 -3 -35 -9 -40 -13 -6 -3 -3 1 7 10 10 10 22 28 27 42 6 15 29 34 57
48 89 45 163 125 185 201 15 52 21 118 10 118 -5 0 -24 -24 -41 -52 -37 -62
-88 -118 -107 -118 -7 0 -27 -13 -45 -28 -18 -16 -51 -39 -73 -52 l-40 -23 43
37 c50 45 79 96 85 154 6 52 -3 53 -31 5 -24 -43 -68 -93 -82 -93 -5 0 -33
-18 -62 -40 -51 -38 -78 -49 -78 -32 0 11 64 70 148 136 40 32 78 69 84 82 7
14 33 40 59 59 27 19 56 51 67 73 l19 39 -49 -19 c-40 -15 -48 -15 -48 -4 0 8
13 24 30 36 16 12 44 41 60 66 28 39 31 52 32 122 0 44 -4 87 -10 98 -11 18
-11 18 -10 -1 3 -42 -25 -124 -52 -156 l-30 -34 6 40 c12 88 37 192 55 234 23
52 19 61 -11 29 -31 -33 -52 -78 -91 -195 -19 -56 -38 -103 -43 -103 -7 0 -2
84 9 152 2 13 6 41 10 63 17 118 33 159 89 230 53 65 51 69 -14 34 -73 -40
-119 -100 -146 -190 -17 -58 -33 -76 -35 -41 -2 40 -11 78 -25 102 -15 25 -15
26 83 123 l98 98 -73 -36 c-41 -20 -85 -41 -99 -46 l-25 -9 29 37 c71 95 100
162 101 239 l2 69 -27 -61 c-32 -69 -79 -144 -92 -144 -9 0 11 117 28 165 l11
30 -23 -28 c-22 -26 -30 -49 -58 -164 -6 -24 -14 -43 -19 -43 -8 0 -6 39 5
125 15 120 15 121 68 215 l19 32 -32 -18 c-63 -37 -105 -133 -113 -264 -4 -59
-34 -156 -37 -120 0 8 -2 43 -4 76 -2 34 -6 66 -10 72 -4 6 1 26 10 44 25 49
41 118 37 163 -2 22 -3 69 -2 105 3 133 0 178 -14 211 -14 34 -14 34 -11 -27
2 -61 -25 -181 -62 -275 -20 -48 -43 -52 -45 -6 -3 67 2 153 13 192 10 39 12
121 4 160 -11 50 -19 81 -26 90 -16 23 -17 59 -4 123 17 81 17 95 3 86 -30
-18 -61 -120 -66 -216 -4 -59 -2 -102 4 -110 16 -21 26 -87 25 -169 0 -58 -5
-85 -22 -115 -36 -66 -70 -79 -70 -28 0 35 -47 171 -69 203 -11 15 -21 52 -24
91 -12 123 -30 181 -78 245 -49 64 -59 59 -55 -25 2 -39 1 -84 -3 -100 l-6
-28 -29 23 -29 23 22 64 c30 81 82 176 115 207 14 14 26 30 26 37 0 22 50 73
99 101 25 15 54 35 65 45 18 16 17 17 -25 16 -106 -1 -204 -66 -274 -182 -25
-41 -50 -70 -67 -77 -16 -6 -28 -16 -28 -22 0 -6 -3 -7 -6 -4 -18 18 52 147
80 147 6 0 22 10 36 21 l25 20 -61 -4 c-137 -10 -248 -99 -285 -228 -7 -24
-16 -48 -21 -54 -4 -5 -41 -10 -81 -11 -39 -1 -93 -4 -119 -8 l-48 -7 0 106
c0 100 -11 131 -23 68 -3 -16 -11 -46 -17 -68 -6 -22 -13 -56 -14 -75 -2 -42
-12 -60 -31 -60 -20 0 -27 15 -32 78 -18 220 -65 319 -178 380 -30 17 -55 28
-55 25z m1393 -1252 c-2 -30 -5 -57 -7 -58 -1 -2 -16 17 -34 42 l-31 44 32 25
c39 31 46 21 40 -53z m158 -278 c0 -10 3 -38 6 -63 10 -86 10 -95 0 -108 -8
-10 -16 8 -33 65 -20 70 -21 80 -8 101 17 26 34 29 35 5z m-2185 -36 c1 -1 -8
-42 -21 -90 -25 -102 -35 -95 -35 25 l0 80 27 -7 c16 -4 29 -7 29 -8z m2209
-336 c3 -5 2 -12 -3 -15 -5 -3 -9 1 -9 9 0 17 3 19 12 6z m-2516 -298 c57 -33
125 -49 218 -48 l72 0 17 -55 c10 -30 28 -79 41 -109 13 -29 22 -55 19 -58
-14 -14 -226 92 -261 131 -5 6 -27 19 -47 30 -33 17 -131 136 -112 136 4 0 28
-12 53 -27z"/>
<path d="M1100 2990 c6 -11 13 -20 16 -20 2 0 0 9 -6 20 -6 11 -13 20 -16 20
-2 0 0 -9 6 -20z"/>
</g>
</svg>
